<svg xmlns="http://www.w3.org/2000/svg" viewBox="0 0 32 32" width="60" height="60">
    <path fill="#25D366" d="M16 1C7.716 1 1 7.716 1 16c0 2.69.691 5.212 1.897 7.413L1 31l7.734-1.816C10.789 30.309 13.331 31 16 31c8.284 0 15-6.716 15-15S24.284 1 16 1zm8.449 22.282c-.363 1.025-1.79 1.883-2.92 1.977-.765.067-1.717.122-5.903-2.522-4.967-2.919-7.263-8.127-7.465-8.496-.202-.37-1.775-3.03-1.775-5.782s1.122-4.14 1.522-4.712c.4-.572 1.004-.705 1.345-.705.34 0 .679.003.977.018.314.015.73-.118 1.146.868.423 1.004 1.441 3.528 1.567 3.784.126.257.202.569.026.92-.178.354-.268.569-.536.87-.263.294-.562.655-.806.882-.267.248-.544.517-.235 1.017.31.5 1.384 2.287 2.963 3.712 2.039 1.816 3.69 2.383 4.193 2.647.504.264.794.221 1.089-.135.295-.356 1.264-1.485 1.602-1.995.336-.51.672-.432 1.146-.26.473.171 2.98 1.404 3.487 1.665.507.261.84.39.965.61.124.221.124 1.246-.24 2.27z"/>
</svg>
