<svg xmlns="http://www.w3.org/2000/svg" viewBox="0 0 32 32" width="60" height="60">
    <defs>
        <linearGradient id="a" x1="50%" x2="50%" y1="0%" y2="100%">
            <stop offset="0%" stop-color="#EDEDED"/>
            <stop offset="100%" stop-color="#DFDFDF"/>
        </linearGradient>
    </defs>
    <g fill="none">
        <circle cx="16" cy="16" r="16" fill="#25D366"/>
        <path fill="#FFF" d="M19.54 17.664c-.285-.142-1.686-.83-1.948-.926-.262-.094-.454-.142-.647.143-.191.286-.744.927-.91 1.114-.167.191-.334.214-.619.072-.285-.142-1.205-.443-2.298-1.413-.85-.759-1.427-1.698-1.595-1.982-.167-.285-.018-.441.126-.583.13-.128.285-.334.428-.502.145-.167.191-.286.286-.477.094-.191.048-.358-.024-.502-.072-.143-.647-1.558-.887-2.13-.234-.562-.475-.487-.647-.487-.167-.007-.358-.007-.548-.007-.191 0-.502.072-.762.358-.262.286-1.005.98-1.005 2.393 0 1.413 1.03 2.776 1.175 2.982.143.191 2.03 3.1 4.926 4.347.688.294 1.226.47 1.645.601.69.22 1.32.19 1.817.115.554-.082 1.686-.688 1.926-1.35.237-.662.237-1.23.167-1.35-.071-.119-.262-.191-.548-.334z"/>
        <path fill="url(#a)" d="M16 0C7.163 0 0 7.163 0 16c0 2.837.74 5.503 2.033 7.81L.5 31.5l7.91-1.519A15.93 15.93 0 0 0 16 32c8.837 0 16-7.163 16-16S24.837 0 16 0zm7.917 22.696c-.333.936-1.633 1.718-2.664 1.801-.701.063-1.573.115-5.405-2.31-4.546-2.67-6.642-7.437-6.845-7.774-.202-.337-1.624-2.77-1.624-5.283 0-2.238 1.066-3.42 1.467-3.894.4-.474 1.004-.584 1.345-.584.333 0 .671.003.962.017.311.014.727-.117 1.14.863.42.998 1.43 3.506 1.555 3.757.125.251.201.555.026.897-.177.343-.268.554-.536.848-.262.287-.557.64-.8.863-.264.243-.538.506-.234.994.3.486 1.346 2.223 2.878 3.609 1.981 1.764 3.58 2.314 4.068 2.568.488.254.77.213 1.06-.13.292-.342 1.254-1.427 1.589-1.92.334-.493.668-.417 1.14-.251.472.167 2.969 1.356 3.469 1.613.5.256.83.384.953.603.122.219.122 1.237-.231 2.255z"/>
    </g>
</svg>
